<svg width="1322" height="401" viewBox="0 0 1322 401" fill="none" xmlns="http://www.w3.org/2000/svg">
<path d="M364.999 37.0269C317.399 45.8269 230.599 83.0269 181.599 115.227C139.399 143.027 81.7988 215.627 46.3988 285.627C21.5988 334.427 21.7988 356.627 47.3988 368.027C54.9988 371.627 62.3988 372.627 88.9988 374.627C106.399 375.827 145.999 371.827 175.999 365.827C236.799 353.627 294.799 328.027 355.399 286.427C368.799 277.427 380.199 269.827 380.599 269.827C380.999 269.827 381.999 274.427 382.599 280.227C384.599 296.027 385.999 296.627 415.799 297.427L441.599 298.227L482.199 277.427C505.399 265.627 525.999 253.827 530.199 249.827C547.599 233.227 544.399 203.027 523.999 191.027C517.199 187.027 514.599 186.827 452.999 187.427L388.999 188.027L385.599 178.427C383.599 173.027 378.799 164.827 374.799 160.227C369.799 154.427 368.199 151.027 369.399 149.227C370.599 148.027 377.199 139.627 384.199 130.827C412.799 95.4269 420.799 81.6269 420.799 66.8269C420.999 40.6269 401.399 30.2269 364.999 37.0269ZM403.199 54.0269C409.599 60.0269 409.599 71.8269 403.199 83.2269C397.399 93.4269 378.399 118.427 361.199 138.827C346.799 155.627 344.799 162.027 346.999 181.227C348.999 197.427 350.799 200.227 356.999 197.427C360.199 196.027 361.799 194.027 361.199 192.027C359.599 187.227 359.199 168.027 360.399 166.827C362.399 164.627 373.799 179.627 375.799 187.227C379.599 200.827 378.599 205.227 370.599 211.227C355.999 222.427 353.599 225.427 355.999 229.827C358.999 235.427 360.799 235.027 374.999 224.827C387.399 216.027 389.999 212.827 389.999 206.027C389.999 203.027 392.399 202.227 405.399 201.027C430.199 199.027 513.799 199.627 518.199 201.827C523.799 204.827 528.399 215.427 528.399 224.427C528.199 236.227 520.599 242.427 479.999 264.027L444.999 282.827L420.599 283.427C393.599 284.227 395.799 285.227 392.999 269.227L391.799 261.827L407.399 261.627C448.599 261.027 444.799 262.027 478.599 245.827C505.599 233.027 509.999 230.427 509.999 226.427C509.999 219.427 504.999 220.427 473.399 234.627L444.999 247.227L401.999 248.427C366.999 249.227 356.399 250.027 345.199 253.427C330.399 257.827 324.799 261.827 326.599 266.627C328.199 270.627 332.599 270.627 347.399 266.827C367.999 261.427 366.999 263.627 342.199 279.627C292.999 311.427 248.999 332.427 205.999 344.827C162.599 357.227 112.199 363.227 77.3988 360.027C43.9988 356.827 37.1988 351.227 41.5988 330.227C48.5988 295.427 111.999 196.027 152.599 156.027L167.599 141.427L175.199 143.827C222.399 159.227 258.599 200.627 262.399 243.827C262.999 250.627 262.399 251.227 244.999 263.227C212.799 285.627 167.799 305.827 121.799 318.627C109.799 322.027 105.799 326.627 110.599 331.227C112.999 333.627 115.799 333.427 130.199 329.827C169.399 319.827 220.399 296.227 254.999 272.427L274.999 258.427L274.599 246.827C272.799 198.827 233.799 150.227 182.999 133.027C179.799 131.827 181.399 130.227 191.999 123.427C223.799 103.227 272.199 80.8269 315.799 65.6269C367.999 47.6269 392.799 44.2269 403.199 54.0269Z" fill="black"/>
<path d="M489.692 69.0271C487.692 80.6271 484.892 89.8271 482.892 91.8271C481.092 93.6271 471.692 96.8271 462.092 98.8271L444.492 102.427L463.092 107.027C473.892 109.627 482.692 112.827 484.092 114.827C485.492 116.627 488.092 127.227 490.092 138.427L493.692 158.827L498.092 137.027C500.892 123.227 503.692 114.227 505.692 112.827C507.492 111.427 516.492 108.627 525.692 106.627L542.692 103.027L524.292 98.6271C514.092 96.0271 505.092 92.8271 503.692 91.0271C502.492 89.2271 499.892 79.2271 497.892 68.8271C496.092 58.4271 494.292 49.8271 493.892 49.8271C493.492 49.8271 491.692 58.4271 489.692 69.0271Z" fill="black"/>
<path d="M625.6 88.7997C620.6 90.1997 614.2 92.7997 611.4 94.3997C600.8 101.4 596.2 123 602.8 135.6C607 143.6 614.6 148.8 628 153C646.2 158.6 650 160.4 653 164.8C657.2 170.6 656.8 175 651.4 181.2C647.6 185.4 645 186.6 638 186.6C630.8 186.6 628.4 185.4 623.6 180.2C620.6 176.8 618 172.6 618 171C618 168.8 615.4 168 607 168C594.6 168 594 169.2 599.2 181.6C603.8 192.8 611.6 199.8 623.8 203.2C635.6 206.8 650.8 205.8 659.8 201C673 194.2 681.2 178.6 679 164.2C677 150.6 668.8 143.6 647.4 137C635.2 133.4 629 130.2 626 126.6C621 120.2 621 117.8 626.2 111.2C631.8 104 644 103.8 651 111C653.8 113.6 656 117.2 656 119C656 121.2 658.4 122 666 122C674.8 122 676 121.4 676 118C676 104.6 663.8 91.5997 648 88.1997C636 85.5997 637.6 85.5997 625.6 88.7997Z" fill="black"/>
<path d="M997.998 88.1998C981.998 91.3998 971.998 102 970.398 117.6C968.598 136.4 977.398 146.2 1003.8 154.8C1020.6 160.4 1026 164.6 1026 172.4C1026 178.6 1020 185.8 1014.6 186.2C1001 187 994.598 184 990.798 174.8C987.998 168.4 987.398 168 977.798 168H967.398L968.598 176C970.998 194.2 985.998 204.8 1009 204.8C1032.4 204.6 1046.8 193.6 1049.4 174C1052 155.4 1042.8 144.2 1019.2 137C998.798 130.8 993.998 127.6 993.998 119.8C993.998 111.8 1000.4 106 1009.2 106C1015 106 1018 107.4 1022.8 112.6C1027.6 117.8 1031.4 119.6 1038.6 120.6C1049.8 122.2 1050.6 120 1043.6 106C1036.2 91.3998 1018.2 84.3998 997.998 88.1998Z" fill="black"/>
<path d="M795.799 92.7995C794.399 95.9995 776.999 152.8 762.799 200.6C761.799 203.8 762.799 204.2 773.199 203.6L784.799 203L788.599 190.4L792.399 177.8L811.599 178.4L830.599 179L833.999 191L837.399 203L848.599 203.6C856.599 204 859.999 203.4 859.999 201.8C859.999 200.4 852.199 174.4 842.799 143.8L825.399 88.3995L811.599 88.5995C799.399 88.5995 797.399 89.1995 795.799 92.7995ZM816.799 132C819.799 142.4 822.599 152.6 823.199 154.4C824.199 157.6 822.799 158 811.199 158C803.999 158 797.999 157.6 797.999 156.8C797.999 156 806.199 125.6 809.199 115.4C809.799 113.4 810.599 112 810.999 112.4C811.199 112.8 813.999 121.6 816.799 132Z" fill="black"/>
<path d="M875.799 88.2C874.999 92.8 874.199 192.6 874.999 197.4C876.199 203.8 876.399 204 886.999 204H897.999V181.8V159.8L906.399 160.4L914.799 161L923.999 182L933.199 203L945.799 203.6C952.799 204 957.999 203.4 957.799 202.4C957.399 201.4 952.599 191 947.199 179.4L937.399 158.2L945.599 149.2C962.399 131 958.399 103.6 937.399 92.6C932.799 90.4 923.399 89.2 903.599 88.4C888.399 87.8 875.999 87.8 875.799 88.2ZM927.999 112C930.799 114.8 931.999 118.6 931.999 124.8C931.999 137.4 925.799 142 908.799 142H895.999V125V108H909.999C921.399 108 924.799 108.8 927.999 112Z" fill="black"/>
<path d="M1066 146V204H1077H1088V180V156H1108H1127.8L1128.4 179.4L1129 203H1140H1151L1151.2 147.4L1151.4 91.6L1147 90C1144.4 89 1139.6 88.4 1136.2 88.4C1128.4 88.6 1127.4 91.6 1128.4 115.8L1129 134H1108.6H1088V111V88H1077H1066V146Z" fill="black"/>
<path d="M1227.2 89.6L1217.6 91V135C1217.6 159.2 1217.6 184.6 1217.8 191.4L1218 204H1229H1240V184.2V164.6L1255.6 163.4C1276.4 162 1287 156.8 1292.2 145.4C1300.6 126.4 1294.4 103 1278.6 94.4C1269.4 89.4 1245.6 87.2 1227.2 89.6ZM1266.6 112C1275.6 119.2 1275.6 136.8 1266.4 141.8C1264.4 142.8 1257.6 144 1251.4 144.4L1240 145.2V126.6V108H1250.8C1258.6 108 1262.8 109.2 1266.6 112Z" fill="black"/>
<path d="M686 100V110H701H716V157V204.2L727.6 203.6L739 203V156.4V110H754.6H770V100V90.0002H728H686V100Z" fill="black"/>
<path d="M1172.4 146.4L1173 203L1184.6 203.6L1196 204.2V147V90.0002H1184H1172L1172.4 146.4Z" fill="black"/>
<path d="M706 293.2V350H740H774V340V330H751.4H728.8V316.6L729 303.2L748 302.8C758.4 302.6 767.6 302.2 768.6 302.2C769.4 302 770 298 770 293V284H750H730L729.6 275.4C729.4 265.8 729.8 259.6 730.8 258.6C731.2 258.2 741 257.8 752.8 257.8H774V247V236L740 236.2L706 236.4V293.2Z" fill="black"/>
<path d="M821.2 239.4C817.2 253.6 789.2 345.6 788.6 347.4C787.8 349.4 790.8 350 799.8 350C807.4 350 812 349.2 812 347.8C812 346.6 813.4 340.8 815.2 334.8L818.4 323.8L836.6 324.4L855 325L858.8 337.4L862.8 350H874.4C880.8 350 886 349.4 885.8 348.4C885.8 347.6 878 322.2 868.4 292L851 237L836.6 236.4C824.4 236 822.2 236.4 821.2 239.4ZM842.8 280C845.8 290.4 848.6 300.6 849.2 302.4C850.2 305.6 848.8 306 837.2 306C830 306 824 305.4 824 304.4C824 303 833.4 267.4 835.2 262.2C836.6 258.2 837 259.2 842.8 280Z" fill="black"/>
<path d="M900 293V350H934H968V340V330H945H922V283V236H911H900V293Z" fill="black"/>
<path d="M981 238C980.4 239 980 264.6 980.2 295L980.4 350H1015.2H1050V340V330H1027H1004V316V302L1022.6 302.6C1032.6 303 1042.2 302.8 1043.6 302.4C1045 302 1046 298 1046 292.8V284H1025H1004V270.2V256.4L1026.6 256.8L1049 257L1049.6 246.4L1050.2 236H1016.2C996.6 236 981.8 236.8 981 238Z" fill="black"/>
<path d="M1067.4 237.4C1066.8 238.6 1067 329.4 1067.8 346.4C1068 349.4 1070 350 1079 350H1090V328.8V307.8L1098.2 308.4L1106.6 309L1115.4 329.4L1124.4 350H1136.2C1142.6 350 1148 349.4 1147.8 348.4C1147.8 347.6 1143.6 337.6 1138.2 326L1128.8 305.2L1134.6 300.2C1142.6 293.4 1146 284.6 1146 270.4C1146 256.6 1141.2 247.6 1130 241.2C1124 237.6 1118.8 236.8 1095.8 236.4C1080.8 236 1068 236.4 1067.4 237.4ZM1115.2 257C1123.6 258.8 1126.8 276 1120.2 284.2C1117 288 1114.2 289 1102.2 289.6L1088 290.4V273.4V256.2L1093.6 255.6C1099.2 255 1107.8 255.6 1115.2 257Z" fill="black"/>
<path d="M598 293.8V350H621C649.4 350 661.2 347.6 670.8 339.8C684.2 328.6 687 320.4 687 293C687 271.2 686.6 268.2 682 260C679.2 255.2 673 248.4 668.4 245C659.8 239 659.4 239 628.8 238.4L598 237.6V293.8ZM650 259.6C653.8 261.4 658.4 265.8 660.4 269.2C665.8 278.6 667.2 297.2 663.2 310.8C658.8 325.6 652.4 330 634.6 330H622V293V256H632.6C638.6 256 646 257.6 650 259.6Z" fill="black"/>
</svg>
